# xmcd
#
# Track frame offsets:
# 183
# 18123
# 38195
# 56378
# 73280
# 95595
# 108645
# 138403
# 150698
# 163730
# 178618
# 191960
# 206008
# 222078
# 242913
# 253830
#
# Disc length: 3706 seconds
#
# Revision: 2
# Processed by: cddbd v1.5.2PL0 Copyright (c) Steve Scherf et al.
# Submitted via: Axialis_AX_CDPlayer 2.6
#
DISCID=ef0e7810
DTITLE=Phil Kelsall - Love Changes Everything
DYEAR=1989
DGENRE=Organ
TTITLE0=Heykens First Serenade
TTITLE1=Morgens Um Sieben
TTITLE2=a) Happy Talk b) I Enjoy Being A Girl c) Hello Young Lovers
TTITLE3=Love Changes Everything
TTITLE4=Roses from the South
TTITLE5=a) Romeo b) Don't Say Goodbye c)  Your Eyes
TTITLE6=a) True Love  b) Let's Do It (Let's Fall In Love)  c) Wunderbar  d) 
TTITLE6=Just \nOne Of Those Things
TTITLE7=Cho Choo Samba
TTITLE8=Trudie
TTITLE9=The Petite Waltz
TTITLE10=Plink! Plank Plunk!
TTITLE11=Tango in D
TTITLE12=aq) Exactly Like You b) Way Down Yonder In New Orleans c) T'aint Wh
TTITLE12=at \nYou Do (It's The Way That 'cha Do It)
TTITLE13=Braes Of Strathnaver
TTITLE14=Rouge Et Noir
TTITLE15=a) Two Sleepy People b) For All We Know c) The World Is Waiting For
TTITLE15=The \nSunrise
EXTD=
EXTT0=
EXTT1=
EXTT2=
EXTT3=
EXTT4=
EXTT5=
EXTT6=
EXTT7=
EXTT8=
EXTT9=
EXTT10=
EXTT11=
EXTT12=
EXTT13=
EXTT14=
EXTT15=
PLAYORDER=
